<svg xmlns="http://www.w3.org/2000/svg" width="300" height="420" viewBox="0 0 300 420"><rect width="300" height="420" fill="#303c5d"/><rect x="13" y="13" width="274" height="394" rx="2" fill="none" stroke="#efe1bd" stroke-opacity=".35"/><path d="M6 0V420" stroke="#000" stroke-opacity=".1" stroke-width="8"/><text x="150" y="48" text-anchor="middle" fill="#efe1bd" font-size="10" font-family="Georgia" letter-spacing="3">TINGYUE CLASSICS</text><text x="150" y="82" text-anchor="middle" fill="#efe1bd" font-size="17" font-family="Georgia" letter-spacing="2">UNDER THE</text><text x="150" y="113" text-anchor="middle" fill="#efe1bd" font-size="28" font-family="Georgia" font-weight="bold">STARS</text><circle cx="150" cy="233" r="61" fill="#edddab"/><circle cx="177" cy="210" r="52" fill="#303c5d"/><path d="M40 174l3 8 8 3-8 3-3 8-3-8-8-3 8-3Z" fill="#ecdcb6"/><path d="M70 236l3 8 8 3-8 3-3 8-3-8-8-3 8-3Z" fill="#ecdcb6"/><path d="M100 298l3 8 8 3-8 3-3 8-3-8-8-3 8-3Z" fill="#ecdcb6"/><path d="M130 174l3 8 8 3-8 3-3 8-3-8-8-3 8-3Z" fill="#ecdcb6"/><path d="M160 236l3 8 8 3-8 3-3 8-3-8-8-3 8-3Z" fill="#ecdcb6"/><path d="M190 298l3 8 8 3-8 3-3 8-3-8-8-3 8-3Z" fill="#ecdcb6"/><path d="M220 174l3 8 8 3-8 3-3 8-3-8-8-3 8-3Z" fill="#ecdcb6"/><path d="M250 236l3 8 8 3-8 3-3 8-3-8-8-3 8-3Z" fill="#ecdcb6"/><path d="M0 367L53 289L87 340L160 302L229 366L274 320L300 362V420H0" fill="#465878"/><path d="M0 394L73 350L147 389L229 341L300 403V420H0" fill="#24354e"/><text x="150" y="390" text-anchor="middle" fill="#efe1bd" font-family="Georgia" font-size="10" letter-spacing="1.5">DISCOVER NATURE</text></svg>
